<svg id="Capa_1" enable-background="new 0 0 511.999 511.999" height="512" viewBox="0 0 511.999 511.999" width="512" xmlns="http://www.w3.org/2000/svg"><path id="XMLID_777_" d="m346 188.499h60c6.617 0 12 5.383 12 12v176c0 6.617-5.383 12-12 12h-60v44h60c30.928 0 56-25.072 56-56v-176c0-30.928-25.072-56-56-56h-60z" fill="#dff6fc"/><path id="XMLID_769_" d="m346 99.507v362.492c0 22.091-17.909 40-40 40h-216c-22.091 0-40-17.909-40-40v-362z" fill="#dff6fc"/><path id="XMLID_887_" d="m90 115.634h216v332.366h-216z" fill="#ffd89e"/><path id="XMLID_885_" d="m298.359 10.026c-22.182-.659-41.71 10.927-52.335 28.5-5.497-3.42-11.982-5.402-18.932-5.402-10.687 0-20.276 4.676-26.851 12.087-9.963-14.015-26.319-23.167-44.824-23.167-21.993 0-40.961 12.92-49.751 31.58-6.101-4.037-13.502-6.265-21.445-5.904-18.062.82-32.905 15.298-34.135 33.336-1.429 20.961 15.151 38.408 35.805 38.408 4.474 0 8.756-.82 12.704-2.317 7.915-3.001 16.715-1.619 23.438 3.524.199.152.399.303.599.452 6.064 4.51 9.681 11.584 9.681 19.141v42.655c0 11.403 9.244 20.647 20.647 20.647 11.403 0 20.647-9.244 20.647-20.647v-47.284c0-3.867 2.196-7.41 5.679-9.091.055-.027.11-.053.165-.08 5.032-2.45 11.113-.349 13.562 4.683 6.287 12.919 19.542 21.823 34.876 21.823 2.828 0 5.585-.303 8.24-.879 10.497-2.276 20.342 6.015 20.342 16.756v65.649c0 13.891 11.368 25.594 25.256 25.33 13.463-.255 24.297-11.248 24.297-24.772v-87.728c0-10.717 6.225-20.405 15.899-25.016 20.195-9.625 34.061-30.384 33.645-54.341-.542-31.299-25.919-57.013-57.209-57.943z" fill="#fff"/><circle id="XMLID_2693_" cx="148" cy="288.499" fill="#ffe6c0" r="20"/><circle id="XMLID_2503_" cx="236.127" cy="344.321" fill="#ffe6c0" r="20"/><path id="XMLID_124_" d="m406 134.499h-50v-30.494c6.34-10.767 9.792-23.25 9.567-36.21-.307-17.72-7.395-34.487-19.957-47.211-12.564-12.728-29.24-20.027-46.954-20.553-21.771-.651-42.499 9.079-55.95 25.828-4.979-1.802-10.256-2.734-15.613-2.734-9.267 0-18.237 2.815-25.776 7.934-12.088-12.055-28.592-19.015-45.899-19.015-21.595 0-41.731 10.895-53.713 28.435-5.683-2.091-11.755-3.03-17.938-2.749-23.303 1.059-42.071 19.393-43.657 42.646-.114 1.666-.136 3.322-.076 4.963-.015.219-.034.437-.034.66v376c0 27.57 22.43 50 50 50h216c27.57 0 50-22.43 50-50v-19.5h50c36.393 0 66-29.607 66-66v-176c0-36.392-29.608-66-66-66zm-70 327.5c0 16.542-13.458 30-30 30h-216c-16.542 0-30-13.458-30-30v-340.561c5.958 4.064 12.823 6.69 20 7.628v114.434c0 5.523 4.478 10 10 10s10-4.477 10-10v-116.254c.718-.232 1.433-.479 2.141-.748 4.628-1.752 9.793-.963 13.83 2.127l.694.523c3.537 2.63 5.648 6.786 5.648 11.116v42.655c0 16.899 13.748 30.647 30.647 30.647s30.647-13.748 30.647-30.647v-47.284l.105-.124c.011-.005.104-.051.116-.057.059-.026.161.006.192.069 8.239 16.929 25.049 27.446 43.867 27.446 3.489 0 6.975-.372 10.359-1.106 2.64-.573 4.593.604 5.524 1.355 1.715 1.383 2.698 3.434 2.698 5.627v65.649c0 9.465 3.896 18.717 10.689 25.383 6.557 6.433 15.091 9.952 24.099 9.952.219 0 .438-.002.657-.006 5.021-.095 9.787-1.285 14.083-3.324v171.499h-195.996v-104.5c0-5.523-4.478-10-10-10s-10 4.477-10 10v114.5c0 5.523 4.478 10 10 10h216c5.522 0 10-4.477 10-10l.025-300.674c0-6.759 4.004-13.035 10.201-15.988 3.445-1.642 6.705-3.559 9.773-5.702v336.365zm-18.377-348.716c-13.12 6.253-21.598 19.615-21.598 34.043l-.025 88.23c-.267 7.766-6.643 14.123-14.462 14.272-3.801.07-7.518-1.427-10.369-4.225-2.985-2.929-4.697-6.978-4.697-11.107v-65.649c0-8.272-3.697-15.998-10.144-21.196-4.817-3.884-10.69-5.937-16.694-5.937-1.871 0-3.755.199-5.623.604-1.995.433-4.055.652-6.121.652-11.103 0-21.021-6.207-25.884-16.199-2.354-4.835-6.452-8.467-11.54-10.224-5.089-1.759-10.557-1.429-15.413.937l-.113.055c-6.883 3.323-11.331 10.426-11.331 18.096v47.284c0 5.871-4.776 10.647-10.647 10.647s-10.647-4.776-10.647-10.647v-42.655c0-10.625-5.127-20.779-13.699-27.155l-.505-.38c-9.559-7.314-21.915-9.157-33.06-4.933-2.917 1.106-5.999 1.667-9.158 1.667-7.252 0-13.973-2.92-18.927-8.223-4.947-5.296-7.398-12.224-6.902-19.504.879-12.887 11.69-23.441 24.612-24.028 5.528-.252 10.887 1.22 15.476 4.255 2.42 1.603 5.419 2.071 8.214 1.289 2.795-.783 5.112-2.742 6.35-5.368 7.394-15.698 23.371-25.841 40.703-25.841 14.523 0 28.233 7.088 36.674 18.961 1.766 2.484 4.568 4.027 7.612 4.191 3.032.159 5.995-1.068 8.019-3.349 4.918-5.544 11.979-8.723 19.371-8.723 4.837 0 9.557 1.346 13.648 3.892 2.27 1.413 5.012 1.858 7.613 1.234 2.601-.623 4.844-2.262 6.228-4.55 9.147-15.13 25.798-24.206 43.48-23.678 25.749.765 47.062 22.352 47.509 48.121.33 19.172-10.64 36.891-27.95 45.141zm38.377 85.216h50c1.103 0 2 .897 2 2v176c0 1.103-.897 2-2 2h-50zm96 178c0 25.364-20.636 46-46 46h-50v-24h50c12.131 0 22-9.869 22-22v-176c0-12.131-9.869-22-22-22h-50v-24h50c25.364 0 46 20.636 46 46z"/><path id="XMLID_790_" d="m90 298.499c2.63 0 5.21-1.07 7.069-2.93 1.86-1.86 2.931-4.44 2.931-7.07s-1.07-5.21-2.931-7.07c-1.859-1.86-4.439-2.93-7.069-2.93s-5.21 1.07-7.07 2.93-2.93 4.44-2.93 7.07 1.069 5.21 2.93 7.07 4.44 2.93 7.07 2.93z"/><path id="XMLID_834_" d="m148 318.499c16.542 0 30-13.458 30-30s-13.458-30-30-30-30 13.458-30 30 13.458 30 30 30zm0-40c5.514 0 10 4.486 10 10s-4.486 10-10 10-10-4.486-10-10 4.486-10 10-10z"/><path id="XMLID_854_" d="m236.127 374.321c16.542 0 30-13.458 30-30s-13.458-30-30-30-30 13.458-30 30 13.458 30 30 30zm0-40c5.514 0 10 4.486 10 10s-4.486 10-10 10-10-4.486-10-10 4.486-10 10-10z"/><path id="XMLID_869_" d="m216.13 250.33c2.63 0 5.21-1.06 7.07-2.93 1.859-1.86 2.93-4.44 2.93-7.07s-1.07-5.2-2.93-7.07c-1.87-1.86-4.44-2.93-7.07-2.93s-5.21 1.07-7.07 2.93c-1.87 1.87-2.93 4.44-2.93 7.07s1.06 5.21 2.93 7.07c1.86 1.869 4.43 2.93 7.07 2.93z"/><path id="XMLID_1114_" d="m168 378.499c-2.63 0-5.21 1.07-7.07 2.93s-2.93 4.44-2.93 7.07 1.069 5.21 2.93 7.07 4.44 2.93 7.07 2.93 5.21-1.07 7.069-2.93c1.86-1.86 2.931-4.44 2.931-7.07s-1.07-5.21-2.931-7.07c-1.859-1.86-4.439-2.93-7.069-2.93z"/></svg>