<svg height="512" viewBox="0 0 512 512" width="512" xmlns="http://www.w3.org/2000/svg"><g id="filled_outline" data-name="filled outline"><path d="m368.367 464.367h-112v24h-112v-416l48-16h128l48 16z" fill="#fbb540"/><path d="m256 400v88h-112v-88z" fill="#0bafea"/><path d="m367.026 187.362a19.8 19.8 0 0 0 -18.826-13.682 19.8 19.8 0 0 0 -37.662 0 19.8 19.8 0 0 0 -11.638 35.82 19.8 19.8 0 0 0 30.469 22.137 19.8 19.8 0 0 0 30.47-22.137 19.806 19.806 0 0 0 7.187-22.138z" fill="#f55648"/><path d="m144.367 72.367-31.467 20.978a115.976 115.976 0 0 0 -28.455 26.918l-36.078 48.1 56 64 40-48z" fill="#fbb540"/><path d="m112 144-3.06 1.02a47.991 47.991 0 0 1 -39.87-4.38l-.38-.23 15.39-20.51a114.464 114.464 0 0 1 10.91-12.56 48.07 48.07 0 0 1 17.01 36.66z" fill="#0296e5"/><path d="m368 72 31.467 20.978a116.012 116.012 0 0 1 28.455 26.922l36.078 48.1-56 64-40-48z" fill="#fbb540"/><path d="m446 144h-6a35.1 35.1 0 0 1 -33.3 24h-6.7l1.86-7.46a46.105 46.105 0 0 1 30.14-32.54h2z" fill="#0296e5"/><path d="m144 200h78.794a23.424 23.424 0 0 0 1.206-7.442c0-13.259-10.515-24.434-23.773-24.557a23.923 23.923 0 0 0 -17.439 7.282 32.006 32.006 0 0 0 -30.888-23.283 31.32 31.32 0 0 0 -7.9 1.033z" fill="#eaeae8"/><path d="m317 56h-123l22-32h80z" fill="#f7ba61"/><g fill="#ea9d2d"><path d="m216 24 8 72 32 56-56-32v-16l-24-24z"/><path d="m170.745 270.222a8 8 0 0 1 -8-8v-14.222a8 8 0 0 1 16 0v14.222a8 8 0 0 1 -8 8z"/><path d="m170.745 384a8 8 0 0 1 -8-8v-14.222a8 8 0 0 1 16 0v14.222a8 8 0 0 1 -8 8z"/><path d="m216 365.255a7.976 7.976 0 0 1 -5.657-2.343l-10.056-10.057a8 8 0 1 1 11.313-11.313l10.057 10.058a8 8 0 0 1 -5.657 13.655z"/><path d="m238.222 320h-14.222a8 8 0 0 1 0-16h14.222a8 8 0 0 1 0 16z"/><path d="m205.943 284.8a8 8 0 0 1 -5.656-13.657l10.056-10.057a8 8 0 1 1 11.314 11.314l-10.057 10.058a7.971 7.971 0 0 1 -5.657 2.342z"/></g><path d="m144 424h32a8 8 0 0 1 0 16h-32z" fill="#0a9acd"/><path d="m224 440h-16a8 8 0 0 1 0-16h16a8 8 0 0 1 0 16z" fill="#0a9acd"/><path d="m208 464h-32a8 8 0 0 1 0-16h32a8 8 0 0 1 0 16z" fill="#0a9acd"/><path d="m368 305.653a126.1 126.1 0 0 0 -76.236-25.653h-3.764l6.195 12.391a35.473 35.473 0 0 0 31.729 19.609h2.076l5.469 8.2a35.475 35.475 0 0 0 29.516 15.8h5.015z" fill="#029532"/><circle cx="329.365" cy="200" fill="#eaeae8" r="10"/><path d="m446 144h-6a35.1 35.1 0 0 1 -33.3 24h-6.7l1.86-7.46a46.105 46.105 0 0 1 30.14-32.54h2z" fill="#bb5a8f"/><path d="m112 144-3.06 1.02a47.991 47.991 0 0 1 -39.87-4.38l-.38-.23 15.39-20.51a114.464 114.464 0 0 1 10.91-12.56 48.07 48.07 0 0 1 17.01 36.66z" fill="#029532"/><path d="m256 352v112h56z" fill="#d18d28"/><path d="m199.19 312a28.453 28.453 0 0 1 -55.19 9.72v-19.44a28.453 28.453 0 0 1 55.19 9.72z" fill="#fd7422"/><path d="m256 352 56 112 32-64z" fill="#f7ba61"/><path d="m296 24-8 72-32 56 56-32v-16l24-24z" fill="#ea9d2d"/><path d="m219.556 56 4.444 40 32 56 32-56 4.444-40z" fill="#d18d28"/><path d="m270.977 143-14.977 9 .004 8 14.973-8.5z" fill="#d18d28"/><path d="m470.4 163.2-36.078-48.1a123.716 123.716 0 0 0 -30.417-28.774l-31.468-20.982c-.156-.1-.322-.185-.484-.277-.126-.072-.246-.15-.376-.215a7.851 7.851 0 0 0 -1.087-.454h-.007l-46.683-15.248-21.29-29.8a7.98 7.98 0 0 0 -5.645-3.282c-.089-.014-.183-.026-.282-.035-.114-.009-.226-.016-.34-.019-.084 0-.152-.014-.243-.014h-80c-.091 0-.161.011-.246.014-.109 0-.217.01-.326.017s-.237.026-.345.044a7.984 7.984 0 0 0 -5.593 3.275l-21.285 29.8-46.688 15.25-.015.006a8.091 8.091 0 0 0 -1.079.45c-.13.066-.251.144-.377.216-.161.092-.328.173-.484.277l-31.462 20.973a123.716 123.716 0 0 0 -30.422 28.778l-36.078 48.1a8 8 0 0 0 .379 10.068l56 64a8 8 0 0 0 6.021 2.732h.1a8.008 8.008 0 0 0 6.05-2.878l25.85-31.022v281.9a8 8 0 0 0 8 8h112a8 8 0 0 0 8-8v-16h104a8 8 0 0 0 8-8v-257.9l25.854 31.026a8.008 8.008 0 0 0 6.046 2.874h.1a8 8 0 0 0 6.021-2.732l56-64a8 8 0 0 0 .379-10.068zm-39.6-26.135 2.252 3a8.022 8.022 0 0 0 -.64 1.4 27.067 27.067 0 0 1 -21.994 18.277 37.837 37.837 0 0 1 20.382-22.677zm-105.249-57.93-19.208 19.208a8 8 0 0 0 -2.343 5.657v11.357l-26.5 15.143 17.446-30.531a7.991 7.991 0 0 0 1-3.086l5.691-51.22zm-69.551 56.741-24.232-42.406-3.274-29.47h55.012l-3.274 29.47zm29.284-87.876h-58.568l-1.778-16h62.124zm-74.926-2.337 1.239 11.15v.013l4.451 40.057a7.991 7.991 0 0 0 1 3.086l17.452 30.531-26.5-15.143v-11.357a8 8 0 0 0 -2.343-5.657l-19.208-19.208zm-40.015 39.994 21.657 21.656v12.687a8 8 0 0 0 4.031 6.946l51.969 29.697v235.357h-96v-48.729a36.466 36.466 0 1 0 0-62.491v-72.78h70.794a8 8 0 0 0 7.587-5.462 31.412 31.412 0 0 0 1.619-9.98c0-17.79-14.22-32.395-31.7-32.557a31.623 31.623 0 0 0 -14.178 3.143 40.157 40.157 0 0 0 -34.122-19.144v-66.2l20.525-6.7-3.035 4.25a8 8 0 0 0 .853 10.307zm-18.343 74.343a24.071 24.071 0 0 1 23.09 17.458 8 8 0 0 0 13.436 3.4 15.888 15.888 0 0 1 11.627-4.858c8.557.08 15.553 7.206 15.838 16h-63.991zm.5 161.225v-.006l-.006-.013c-.18-.353-.34-.695-.487-1.032v-16.314a20.426 20.426 0 1 1 .5 17.365zm-62.022-196.525c1.491-1.987 3.062-3.9 4.677-5.774a40.019 40.019 0 0 1 8.43 19.336 39.936 39.936 0 0 1 -22.614-.886zm13.374 94.986-45.561-52.07 12.725-16.966a55.869 55.869 0 0 0 40.457 1.962l3.056-1.019a8 8 0 0 0 5.471-7.593 56.019 56.019 0 0 0 -13.488-36.424 108.313 108.313 0 0 1 10.458-7.942l19.03-12.686v94.152zm144.148 260.314h-96v-40h24a8 8 0 0 0 0-16h-24v-16h96zm16-94.112 35.056 70.112h-35.056zm10.563-14.65 58.83 32.089-21.393 42.784zm50.381 84.762 26.211-52.422a8 8 0 0 0 -3.324-10.6l-83.831-45.727v-190.608l51.969-29.7a8 8 0 0 0 4.031-6.943v-12.687l21.657-21.656a8 8 0 0 0 .853-10.307l-3.035-4.25 20.525 6.7v90.506a27.67 27.67 0 0 0 -6.375-2.1 27.814 27.814 0 0 0 -48.519 0 27.814 27.814 0 0 0 -14.993 46.144 27.813 27.813 0 0 0 39.252 28.518 27.716 27.716 0 0 0 27.978-2.764 27.978 27.978 0 0 0 2.657-2.204v54.777a134.993 134.993 0 0 0 -68.236-18.677h-3.764a8 8 0 0 0 -7.155 11.578l6.195 12.39a43.216 43.216 0 0 0 36.641 23.975l3.132 4.7a43.373 43.373 0 0 0 33.187 19.248v112.109zm27.283-244.028a11.8 11.8 0 0 1 -18.158 13.193 8 8 0 0 0 -9.407 0 11.8 11.8 0 0 1 -18.162-13.193 8 8 0 0 0 -2.906-8.946 11.8 11.8 0 0 1 6.934-21.346 8 8 0 0 0 7.609-5.529 11.8 11.8 0 0 1 22.444 0 8 8 0 0 0 7.61 5.529 11.8 11.8 0 0 1 6.936 21.346 8 8 0 0 0 -2.9 8.946zm7.773 115.867a27.416 27.416 0 0 1 -19.875-12.073l-5.469-8.2a8 8 0 0 0 -6.656-3.566h-2.076a27.323 27.323 0 0 1 -24.573-15.187l-.217-.434a118.988 118.988 0 0 1 58.866 21.329zm48.148-108.157-32.148-38.582v-94.152l19.03 12.686a107.759 107.759 0 0 1 26 24.428 53.78 53.78 0 0 0 -26.93 34.538l-1.864 7.457a8 8 0 0 0 7.764 9.943h6.7a43.039 43.039 0 0 0 37.245-21.4l9.762 13.016z"/><path d="m170.745 240a8 8 0 0 0 -8 8v14.222a8 8 0 0 0 16 0v-14.222a8 8 0 0 0 -8-8z"/><path d="m170.745 353.778a8 8 0 0 0 -8 8v14.222a8 8 0 0 0 16 0v-14.222a8 8 0 0 0 -8-8z"/><path d="m211.6 341.542a8 8 0 1 0 -11.313 11.313l10.056 10.057a8 8 0 1 0 11.314-11.312z"/><path d="m216 312a8 8 0 0 0 8 8h14.222a8 8 0 0 0 0-16h-14.222a8 8 0 0 0 -8 8z"/><path d="m221.657 272.4a8 8 0 1 0 -11.314-11.314l-10.056 10.057a8 8 0 1 0 11.313 11.315z"/><path d="m224 424h-16a8 8 0 0 0 0 16h16a8 8 0 0 0 0-16z"/><path d="m208 448h-32a8 8 0 0 0 0 16h32a8 8 0 0 0 0-16z"/><circle cx="329.365" cy="200" r="10"/></g></svg>