<svg id="Capa_1" enable-background="new 0 0 511.998 511.998" height="512" viewBox="0 0 511.998 511.998" width="512" xmlns="http://www.w3.org/2000/svg"><path id="XMLID_1486_" d="m389.522 180.123h-40v-87.039c0-5.305 2.107-10.392 5.858-14.143l44.344-44.344 28.284 28.285-38.486 38.485z" fill="#b0e7f8"/><path id="XMLID_2390_" d="m403.948 180.123h-295.853l-58.074 78.24v37.635c0 113.771 92.229 206 206 206 113.771 0 206-92.229 206-206v-37.635z" fill="#cbe558"/><path id="XMLID_2389_" d="m403.948 180.123h-295.853l-58.074 78.24v2.339c37.924 19.564 99.41 19.564 137.333 0 37.923 19.564 99.41 19.564 137.333 0 37.924 19.564 99.41 19.564 137.333 0v-2.339z" fill="#fff"/><path id="XMLID_851_" d="m18.072 148.454 113.013-138.456 167.1 63.4z" fill="#f5737f"/><path id="XMLID_2575_" d="m115.597 122.322 15.488-112.324 69.575 89.532z" fill="#fff"/><path id="XMLID_1695_" d="m442.236 350.872c-1.246-45.857-70.367-45.857-71.613 0-.018.659-.027 1.32-.027 1.983 0 26.526 14.413 49.685 35.833 62.077 21.421-12.392 35.833-35.55 35.833-62.077.001-.663-.008-1.324-.026-1.983z" fill="#ffcb7c"/><path id="XMLID_1693_" d="m356.57 361.083c-43.998-12.986-65.357 52.752-22.13 68.108.621.221 1.247.433 1.878.638 25.228 8.197 51.707 1.646 70.111-14.897-5.166-24.201-22.737-45.065-47.965-53.262-.63-.205-1.262-.401-1.894-.587z" fill="#ffedd1"/><path id="XMLID_1691_" d="m339.808 445.711c-25.946 37.832 29.974 78.46 57.936 42.093.402-.522.798-1.052 1.187-1.589 15.592-21.46 17.544-48.667 7.498-71.283-24.613-2.566-49.886 7.698-65.477 29.159-.389.536-.771 1.076-1.144 1.62z" fill="#ffcb7c"/><path id="XMLID_1688_" d="m415.115 487.804c27.962 36.367 83.882-4.261 57.936-42.093-.373-.544-.754-1.084-1.144-1.62-15.592-21.46-40.864-31.724-65.477-29.159-10.046 22.616-8.094 49.823 7.498 71.283.389.537.785 1.066 1.187 1.589z" fill="#ffedd1"/><path id="XMLID_1360_" d="m478.419 429.19c43.228-15.356 21.868-81.093-22.13-68.108-.632.187-1.264.382-1.894.587-25.228 8.197-42.799 29.061-47.965 53.262 18.405 16.543 44.883 23.094 70.111 14.897.631-.204 1.257-.417 1.878-.638z" fill="#ffcb7c"/><path id="XMLID_616_" d="m509.574 381.419c-5.836-17.96-22.293-32.98-44.224-31.965 4.429-17.389 6.671-35.301 6.671-53.456v-37.635c0-2.146-.691-4.236-1.97-5.96l-58.074-78.24c-1.886-2.542-4.865-4.04-8.03-4.04h-4.426v-64.613l35.557-35.557c3.905-3.905 3.906-10.237 0-14.143l-28.284-28.285c-1.875-1.875-4.419-2.929-7.071-2.929s-5.196 1.054-7.071 2.929l-44.344 44.345c-5.666 5.666-8.787 13.2-8.787 21.214v77.039h-155.178l-13.967-52.126 26.461-7.09 2.203 2.834c3.389 4.362 9.671 5.148 14.032 1.761 3.111-2.418 4.393-6.308 3.647-9.923l80.937-21.687 8.886 3.371c1.168.443 2.366.653 3.545.653 4.034 0 7.835-2.46 9.352-6.455 1.959-5.164-.639-10.938-5.802-12.897l-179.005-67.916-.002.006c-1.922-.729-4.061-.87-6.133-.316-2.072.555-3.843 1.756-5.143 3.349l-.016-.013-121.063 148.319c-3.492 4.278-2.855 10.578 1.424 14.07 1.857 1.516 4.094 2.253 6.317 2.253 2.899 0 5.776-1.255 7.753-3.677l6.009-7.362 80.937-21.687c1.162 3.504 4.216 6.232 8.12 6.77.463.063.923.095 1.378.095 4.916 0 9.203-3.628 9.894-8.635l.49-3.557 26.461-7.09 12.58 46.95h-55.543c-3.165 0-6.144 1.498-8.03 4.04l-58.074 78.24c-1.279 1.724-1.97 3.813-1.97 5.96v37.635c0 57.695 22.468 111.938 63.265 152.735s95.04 63.265 152.735 63.265c27.665 0 54.501-5.146 79.896-15.276 2.076 2.189 4.341 4.189 6.766 5.951 8.002 5.813 17.887 9.266 27.952 9.266 12.49-.001 25.256-5.317 35.036-18.038.257-.333.507-.676.759-1.015.252.338.501.679.758 1.014 9.782 12.722 22.546 18.039 35.038 18.039 10.063-.001 19.951-3.453 27.951-9.267 17.932-13.028 27.51-38.72 11.12-62.619-.237-.346-.485-.688-.729-1.032.4-.135.802-.267 1.198-.407 27.305-9.7 34.657-36.115 27.808-57.195zm-305.092-293.267-43.652-56.173 104.84 39.777zm-88.167-44.244-9.717 70.473-61.188 16.395zm21.435-9.036 45.769 58.897-55.958 14.994zm352.803 352.727c3.867 11.9.58 26.463-15.482 32.168-.536.19-1.076.374-1.62.551-16.754 5.445-34.951 3.347-49.934-5.288 12.47-10.649 21.456-24.823 25.8-40.534 1.631-.799 3.301-1.529 5.002-2.184.116-.042.229-.09.343-.137.93-.352 1.868-.684 2.814-.991.547-.177 1.096-.348 1.644-.51 16.349-4.822 27.566 5.025 31.433 16.925zm-142.586 34.84c-2.886-.503-5.753-1.209-8.557-2.12-.544-.178-1.085-.361-1.622-.552-16.061-5.705-19.348-20.268-15.481-32.168s15.084-21.747 31.433-16.926c.549.162 1.098.333 1.635.507 16.753 5.443 30.243 17.838 37.29 33.631-16.347 1.287-31.948 7.471-44.698 17.628zm32.629-69.584c0-.574.008-1.146.023-1.711.463-17.038 13.297-24.665 25.811-24.664 12.514 0 25.347 7.626 25.81 24.667.016.567.023 1.137.023 1.708 0 17.615-7.619 34.274-20.46 45.856-6.272-15.144-16.97-28.066-30.566-37.054-.415-2.905-.641-5.85-.641-8.802zm67.285-96.765c-33.89 13.188-81.759 12.476-114.139-2.135l-10.133-63.833h75.307zm-144.522-65.967 10.273 64.719c-33.128 14.095-81.27 14.187-114.589.27l16.111-64.989zm56.163-97.039c0-2.671 1.04-5.183 2.929-7.071l37.273-37.272 14.142 14.143-31.415 31.414c-1.875 1.876-2.929 4.419-2.929 7.071v68.755h-20zm-246.395 97.039h81.423l-15.772 63.622c-32.385 14.818-80.56 15.598-114.615 2.346zm142.895 301.875c-108.075 0-196-87.925-196-196v-20.129c17.22 6.173 37.496 9.507 58.667 9.507 25.423 0 49.574-4.791 68.667-13.555 19.093 8.764 43.244 13.555 68.667 13.555s49.574-4.791 68.667-13.555c19.093 8.764 43.244 13.555 68.667 13.555 21.171 0 41.446-3.334 58.667-9.507v20.129c0 12.504-1.174 24.876-3.492 37.009-7.452-17.472-24.975-26.526-42.1-26.526-22.164 0-45.016 15.156-45.803 44.126-.011.418-.012.84-.017 1.26-.403-.126-.805-.255-1.209-.374-27.795-8.205-49.267 8.847-56.116 29.927s.503 47.495 27.807 57.194c.396.141.799.272 1.199.408-.244.344-.492.687-.73 1.034-9.185 13.393-10.211 27.348-6.184 39.323-22.104 8.376-45.386 12.619-69.357 12.619zm133.794-10.29c-10.389 13.512-25.254 12.138-35.377 4.784-2.809-2.041-5.291-4.573-7.208-7.464-.051-.075-.097-.154-.149-.227-4.865-7.502-5.923-17.379.972-27.432.323-.472.654-.94.988-1.4 10.354-14.251 26.31-23.25 43.506-25.071-3.828 15.94-2.768 32.683 2.948 47.944-1.373 2.594-2.921 5.109-4.655 7.496-.335.461-.676.917-1.025 1.37zm68.605 4.784c-10.123 7.355-24.989 8.729-35.376-4.78-.348-.453-.69-.911-1.027-1.374-10.353-14.25-13.982-32.203-10.402-49.12 12.942 7.931 27.833 12.093 42.893 12.093 1.207 0 2.415-.034 3.624-.088 2.041 2.106 3.949 4.36 5.683 6.745.337.465.667.932.988 1.399 9.64 14.055 3.741 27.769-6.383 35.125z"/><path id="XMLID_844_" d="m256.022 443.998c-40.117 0-77.671-15.787-105.745-44.453-3.864-3.946-10.196-4.011-14.142-.147s-4.012 10.195-.147 14.142c31.868 32.539 74.497 50.459 120.034 50.459 5.523 0 10-4.478 10-10s-4.477-10.001-10-10.001z"/><path id="XMLID_845_" d="m116.522 360.248c-2.63 0-5.21 1.069-7.07 2.93-1.86 1.86-2.93 4.44-2.93 7.07 0 2.64 1.07 5.21 2.93 7.069 1.86 1.86 4.44 2.931 7.07 2.931s5.21-1.07 7.07-2.931c1.86-1.859 2.93-4.43 2.93-7.069 0-2.63-1.07-5.21-2.93-7.07s-4.441-2.93-7.07-2.93z"/></svg>