<svg height="512" viewBox="0 0 64 64" width="512" xmlns="http://www.w3.org/2000/svg"><g id="wirelss_controller-game_controller-monitor-gamepad-bluetooth_controller" data-name="wirelss controller-game controller-monitor-gamepad-bluetooth controller"><path d="m55 12v12a3 3 0 0 1 -3 3h-1v-18h1a3 3 0 0 1 3 3z" fill="#57a4ff"/><path d="m55 12v12a3 3 0 0 1 -3 3h-1v-.18a2.968 2.968 0 0 0 2-2.82v-12a2.968 2.968 0 0 0 -2-2.82v-.18h1a3 3 0 0 1 3 3z" fill="#006df0"/><rect fill="#c6c5ca" height="58" rx="2" width="38" x="13" y="3"/><path d="m51 5v54a2.006 2.006 0 0 1 -2 2h-4a2.006 2.006 0 0 0 2-2v-54a2.006 2.006 0 0 0 -2-2h4a2.006 2.006 0 0 1 2 2z" fill="#acabb1"/><path d="m17 7h30v22h-30z" fill="#46f8ff"/><path d="m43 7h4v22h-4z" fill="#00b6bd"/><circle cx="41" cy="46" fill="#fee9ab" r="6"/><path d="m47 46a6 6 0 0 1 -6 6 5.8 5.8 0 0 1 -2-.35 5.99 5.99 0 0 0 0-11.3 5.8 5.8 0 0 1 2-.35 6 6 0 0 1 6 6z" fill="#ffd422"/><path d="m30 33h4v4h-4z" fill="#ff3051"/><path d="m31 44v4h-5v5h-4v-5h-5v-4h5v-5h4v5z" fill="#2488ff"/><path d="m31 44v4h-5v5h-2v-14h2v5z" fill="#006df0"/><path d="m13 21v6h-2a2.006 2.006 0 0 1 -2-2v-2a2.006 2.006 0 0 1 2-2z" fill="#9cdd05"/><path d="m13 9v6h-2a2.006 2.006 0 0 1 -2-2v-2a2.006 2.006 0 0 1 2-2z" fill="#ff3051"/><path d="m47 6h-30a1 1 0 0 0 -1 1v22a1 1 0 0 0 1 1h30a1 1 0 0 0 1-1v-22a1 1 0 0 0 -1-1zm-1 22h-28v-20h28z"/><path d="m52 8v-3a3.009 3.009 0 0 0 -3-3h-34a3.009 3.009 0 0 0 -3 3v3h-1a3.009 3.009 0 0 0 -3 3v2a3.009 3.009 0 0 0 3 3h1v4h-1a3.009 3.009 0 0 0 -3 3v2a3.009 3.009 0 0 0 3 3h1v31a3.009 3.009 0 0 0 3 3h34a3.009 3.009 0 0 0 3-3v-31a4 4 0 0 0 4-4v-12a4 4 0 0 0 -4-4zm-40 18h-1a1 1 0 0 1 -1-1v-2a1 1 0 0 1 1-1h1zm0-12h-1a1 1 0 0 1 -1-1v-2a1 1 0 0 1 1-1h1zm38 45a1 1 0 0 1 -1 1h-34a1 1 0 0 1 -1-1v-54a1 1 0 0 1 1-1h34a1 1 0 0 1 1 1zm4-35a2.006 2.006 0 0 1 -2 2v-16a2.006 2.006 0 0 1 2 2z"/><path d="m31 43h-4v-4a1 1 0 0 0 -1-1h-4a1 1 0 0 0 -1 1v4h-4a1 1 0 0 0 -1 1v4a1 1 0 0 0 1 1h4v4a1 1 0 0 0 1 1h4a1 1 0 0 0 1-1v-4h4a1 1 0 0 0 1-1v-4a1 1 0 0 0 -1-1zm-1 4h-4a1 1 0 0 0 -1 1v4h-2v-4a1 1 0 0 0 -1-1h-4v-2h4a1 1 0 0 0 1-1v-4h2v4a1 1 0 0 0 1 1h4z"/><path d="m41 39a7 7 0 1 0 7 7 7.008 7.008 0 0 0 -7-7zm0 12a5 5 0 1 1 5-5 5.006 5.006 0 0 1 -5 5z"/><path d="m40 43h2v2h-2z"/><path d="m38 45h2v2h-2z"/><path d="m40 47h2v2h-2z"/><path d="m42 45h2v2h-2z"/><path d="m34 38a1 1 0 0 0 1-1v-4a1 1 0 0 0 -1-1h-4a1 1 0 0 0 -1 1v4a1 1 0 0 0 1 1zm-3-4h2v2h-2z"/><path d="m16 56h32v2h-32z"/><path d="m16 32h2v2h-2z"/><path d="m20 32h2v2h-2z"/><path d="m24 32h2v2h-2z"/><path d="m38 32h2v2h-2z"/><path d="m42 32h2v2h-2z"/><path d="m46 32h2v2h-2z"/><path d="m42 15h2v-4a1 1 0 0 0 -1-1h-4v2h3z"/><path d="m42 17h2v2h-2z"/></g></svg>