<svg id="Capa_1" enable-background="new 0 0 512.001 512.001" height="512" viewBox="0 0 512.001 512.001" width="512" xmlns="http://www.w3.org/2000/svg"><g><g><path d="m430.012 504.501h-348.024c-14.751 0-26.709-11.805-26.709-26.366v-367.612c0-10.099 5.843-19.31 15.047-23.72l53.02-25.403 265.87-.923 52.803 26.231c9.015 4.478 14.703 13.59 14.703 23.552v367.874c0 14.562-11.958 26.367-26.71 26.367z" fill="#fee97d"/><path d="m442.019 86.709-28.177-13.998c7.949 4.749 12.88 13.278 12.88 22.549.062 40.938.123 81.876.185 122.814.225 149.681-120.974 271.182-270.655 271.329l-98.369.097c4.3 8.872 13.477 15 24.105 15h348.024c14.751 0 26.71-11.805 26.71-26.366v-367.873c0-9.963-5.688-19.074-14.703-23.552z" fill="#fedf30"/><path d="m278 287.501h-44c-4.418 0-8-3.582-8-8v-194h60v194c0 4.418-3.581 8-8 8z" fill="#fef0ae"/><path d="m397.019 273.299h-51.316c-10.992 0-19.903-8.911-19.903-19.903v-70.24h91.122v70.24c0 10.992-8.911 19.903-19.903 19.903z" fill="#fedf30"/><g><path d="m355.012 7.501-99.151 87.535-95.179-87.535z" fill="#fef0ae"/><g fill="#fedf30"><path d="m255.861 95.036-48.741 30.35c-7.085 4.411-16.317 3.41-22.263-2.414l-60.923-59.683 36.747-55.788z"/><path d="m388.627 62.252-61.748 60.687c-5.943 5.841-15.188 6.852-22.281 2.436l-48.736-30.34 99.151-87.535z"/></g></g></g><path d="m256 236.991c-4.142 0-7.5 3.358-7.5 7.5s3.358 7.5 7.5 7.5 7.5-3.358 7.5-7.5-3.358-7.5-7.5-7.5zm189.356-156.999-52.803-26.231c-.152-.076-.307-.137-.462-.201l-30.687-49.984c-1.13-1.842-3.512-3.612-6.392-3.576h-194.33c-2.258.108-4.62.895-6.264 3.375l-33.563 50.953c-.663.235-53.069 25.376-53.771 25.712-11.729 5.619-19.307 17.584-19.307 30.483v289.689c0 4.143 3.357 7.5 7.5 7.5s7.5-3.357 7.5-7.5v-289.689c0-7.161 4.234-13.816 10.787-16.956l47.385-22.703 58.659 57.464c4.928 4.828 11.378 7.321 17.896 7.321 8.375 0 14.215-4.239 20.995-8.515v152.365c0 8.547 6.953 15.5 15.5 15.5h44c8.547 0 15.5-6.953 15.5-15.5v-152.197c5.962 4.224 13.444 8.339 20.713 8.339 6.529 0 12.991-2.504 17.923-7.352l19.414-19.081c2.954-2.904 2.996-7.652.092-10.606-2.903-2.955-7.652-2.993-10.605-.092l-19.414 19.081c-3.448 3.387-8.939 3.982-13.061 1.417l-40.187-25.017 84.913-74.965 25.823 42.062-17.475 17.174c-2.954 2.903-2.996 7.652-.093 10.606 2.905 2.955 7.653 2.996 10.606.092l19.321-18.988 47.21 23.453c6.501 3.229 10.54 9.68 10.54 16.835v367.874c0 10.403-8.617 18.866-19.21 18.866h-348.02c-10.593 0-19.21-8.463-19.21-18.866v-47.922c0-4.143-3.357-7.5-7.5-7.5s-7.5 3.357-7.5 7.5v47.922c0 18.674 15.347 33.866 34.21 33.866h348.023c18.863 0 34.21-15.192 34.21-33.866v-367.873c0-12.89-7.23-24.488-18.866-30.269zm-242.199 39.027c-4.182 2.603-9.548 2.025-13.05-1.405l-56.51-55.36 28.498-43.265 81.431 74.892zm75.343-1.055v161.537c0 .275-.225.5-.5.5h-44c-.275 0-.5-.225-.5-.5v-161.706l22.361-13.924zm-22.537-33.024-76.047-69.939h155.268zm141.056 195.859c15.11 0 27.403-12.293 27.403-27.403v-70.24c0-4.142-3.357-7.5-7.5-7.5h-91.122c-4.143 0-7.5 3.358-7.5 7.5v70.24c0 15.11 12.293 27.403 27.403 27.403zm-63.719-27.403v-62.74h76.122v62.74c0 6.839-5.564 12.403-12.403 12.403h-51.315c-6.839 0-12.404-5.564-12.404-12.403zm-84.8-98.905c0 4.142 3.358 7.5 7.5 7.5s7.5-3.358 7.5-7.5-3.358-7.5-7.5-7.5-7.5 3.358-7.5 7.5zm7.5 37.5c-4.142 0-7.5 3.358-7.5 7.5s3.358 7.5 7.5 7.5 7.5-3.358 7.5-7.5-3.358-7.5-7.5-7.5z"/></g></svg>