<svg id="Capa_1" enable-background="new 0 0 512 512" height="512" viewBox="0 0 512 512" width="512" xmlns="http://www.w3.org/2000/svg"><path id="XMLID_837_" d="m393.023 246 77.977-236h-51.813l-77.978 236z" fill="#fff"/><path id="XMLID_2821_" d="m437.086 112.207-38.816-38.816 17.199-51.7 38.78 38.779z" fill="#dff6fc"/><circle id="XMLID_836_" cx="256" cy="154" fill="#ffd6c1" r="124"/><circle id="XMLID_755_" cx="351" cy="252" fill="#fbc2c7" r="124"/><path id="XMLID_1346_" d="m472 266h-432c-11.046 0-20 8.954-20 20 0 11.046 8.954 20 20 20h432c11.046 0 20-8.954 20-20 0-11.046-8.954-20-20-20z" fill="#91def5"/><path id="XMLID_1347_" d="m289.167 502h-66.333c-102.634 0-185.834-83.2-185.834-185.833v-10.167h438v10.167c0 102.633-83.2 185.833-185.833 185.833z" fill="#dff6fc"/><path id="XMLID_868_" d="m37.795 266.123c-.525-4.635-.795-9.347-.795-14.123 0-68.483 55.517-124 124-124s124 55.517 124 124c0 4.733-.265 9.405-.782 14h-5.218-2.25c-13.669 0-24.75 11.081-24.75 24.75v26c0 9.251-7.499 16.75-16.75 16.75-9.251 0-16.75 7.499-16.75 16.75v13.764c0 13.523-10.963 24.486-24.486 24.486-13.523 0-24.486-10.963-24.486-24.486v-73.264c0-13.669-11.081-24.75-24.75-24.75h-16.778z" fill="#f0f7cd"/><path id="XMLID_91_" d="m380.701 402.513c-24.03 25.464-56.538 39.487-91.534 39.487-5.522 0-10 4.477-10 10s4.478 10 10 10c40.559 0 78.231-16.251 106.079-45.761 3.791-4.017 3.607-10.346-.409-14.136-4.018-3.79-10.345-3.607-14.136.41z"/><path id="XMLID_106_" d="m502 286c0-11.959-7.036-22.302-17.183-27.118.116-2.292.183-4.59.183-6.882 0-41.73-19.178-79.063-49.179-103.658l44.674-135.205c1.007-3.047.49-6.394-1.391-8.995-1.879-2.601-4.894-4.142-8.104-4.142h-51.813c-4.313 0-8.142 2.767-9.495 6.863l-30.873 93.435c-20.914-47.878-68.676-80.298-122.819-80.298-62.233 0-116.036 42.83-130.328 102.736-56.801 15.541-98.672 67.601-98.672 129.264 0 2.292.067 4.589.183 6.882-10.147 4.816-17.183 15.159-17.183 27.118 0 11.887 6.95 22.182 17 27.034v3.132c0 107.983 87.851 195.834 195.833 195.834h66.334c31.257 0 61.133-7.147 88.796-21.245 4.921-2.507 6.877-8.529 4.37-13.45s-8.529-6.877-13.45-4.37c-24.825 12.651-51.646 19.065-79.716 19.065h-66.334c-96.955 0-175.833-78.878-175.833-175.833v-.167h112.528v48.014c0 19.016 15.471 34.486 34.486 34.486s34.485-15.47 34.485-34.486v-13.764c0-3.722 3.028-6.75 6.75-6.75 14.75 0 26.75-12 26.75-26.75v-.75h203v.167c0 36.592-11.129 71.666-32.185 101.429-3.189 4.509-2.12 10.75 2.389 13.939 1.754 1.241 3.771 1.837 5.767 1.837 3.136 0 6.224-1.471 8.173-4.226 23.458-33.159 35.857-72.227 35.857-112.979v-3.132c10.05-4.853 17-15.148 17-27.035zm-37-34c0 1.332-.031 2.666-.077 4h-169.985c.04-1.335.062-2.669.062-4 0-29.608-9.659-56.999-25.983-79.201 21.443-22.205 50.882-34.799 81.983-34.799 62.859 0 114 51.14 114 114zm-73.08-127.602 10.732-32.481 23.113 23.112-7.063 21.375c-8.389-4.933-17.359-8.977-26.782-12.006zm27.844-84.27 23.113 23.112-10.087 30.528-23.113-23.112zm30.137 1.852-21.98-21.98h29.243zm-193.901-1.98c49.876 0 93.385 32.328 108.426 78.67-4.417-.441-8.895-.67-13.426-.67-35.923 0-69.964 14.286-95.046 39.544-24.284-24.41-57.884-39.544-94.954-39.544-4.531 0-9.009.229-13.426.67 15.041-46.342 58.55-78.67 108.426-78.67zm-216 256c-5.514 0-10-4.486-10-10s4.486-10 10-10h104.778c8.133 0 14.75 6.617 14.75 14.75v5.25zm202 20.75c0 3.722-3.028 6.75-6.75 6.75-14.75 0-26.75 12-26.75 26.75v13.764c0 7.987-6.499 14.486-14.486 14.486s-14.485-6.499-14.485-14.486v-73.264c0-19.161-15.589-34.75-34.75-34.75h-97.702c-.046-1.334-.077-2.668-.077-4 0-62.86 51.141-114 114-114s114 51.14 114 114c0 1.347-.032 2.698-.08 4.049-18.314.954-32.92 16.154-32.92 34.701zm20-26c0-8.133 6.617-14.75 14.75-14.75h195.25c5.514 0 10 4.486 10 10s-4.486 10-10 10h-210z"/><path id="XMLID_772_" d="m410.75 446.71c-2.63 0-5.21 1.06-7.07 2.93-1.86 1.86-2.93 4.43-2.93 7.07 0 2.63 1.069 5.21 2.93 7.07s4.44 2.93 7.07 2.93 5.21-1.07 7.069-2.93c1.86-1.86 2.931-4.44 2.931-7.07s-1.07-5.21-2.931-7.07c-1.859-1.87-4.439-2.93-7.069-2.93z"/></svg>