<svg id="filled_outline" height="512" viewBox="0 0 512 512" width="512" xmlns="http://www.w3.org/2000/svg" data-name="filled outline"><path d="m488 248v96h-432l-32-32v-24l16-8 13.71-24 11.38013-19.91016a23.99539 23.99539 0 0 1 20.8398-12.08984h34.07007l40.97-40.97a24.01064 24.01064 0 0 1 16.97-7.03h138.82a23.98661 23.98661 0 0 1 18.44 8.64014l32.8 39.35986z" fill="#ffc431"/><path d="m96 256-16 24h-40l13.71-24z" fill="#ef5e3b"/><circle cx="120" cy="328" fill="#d1e4ff" r="40"/><circle cx="408" cy="328" fill="#d1e4ff" r="40"/><path d="m488 248-32 16v16h32z" fill="#ffe28f"/><path d="m368 224h-248l40.97-40.97a24.01064 24.01064 0 0 1 16.97-7.03h138.82a23.98661 23.98661 0 0 1 18.44 8.64014z" fill="#8be0e8"/><path d="m224 176 16-32h32l16 32z" fill="#ffc431"/><path d="m489.56934 240.15527-117.23145-23.44627-30.99609-37.19435a31.9141 31.9141 0 0 0 -24.58301-11.51465h-23.81445l-13.78907-27.57812a8.00022 8.00022 0 0 0 -7.15527-4.42188h-32a8.00022 8.00022 0 0 0 -7.15527 4.42188l-13.78907 27.57812h-41.11425a31.79072 31.79072 0 0 0 -22.62793 9.37207l-38.62696 38.62793h-30.75879a32.07124 32.07124 0 0 0 -27.78418 16.124l-23.88769 41.80373-13.834 6.917a7.99912 7.99912 0 0 0 -4.42186 7.15527v24a8.00235 8.00235 0 0 0 2.34277 5.65723l32 32a8.00235 8.00235 0 0 0 5.65723 2.34277h22.45752a47.9537 47.9537 0 0 0 83.085 0h204.915a47.9537 47.9537 0 0 0 83.085 0h38.45748a8.00039 8.00039 0 0 0 8-8v-96a8 8 0 0 0 -6.43066-7.84473zm-25.56934 28.78907 16-8v11.05566h-16zm-134.94922-79.1875 21.86939 26.24316h-94.92017v-32h60.75879a15.95913 15.95913 0 0 1 12.29199 5.75684zm-84.10644-37.75684h22.11132l8 16h-38.11132zm-78.31641 36.68652a15.891 15.891 0 0 1 11.31348-4.68652h62.05859v32h-100.68555zm-108.271 75.31348h22.69483l-5.333 8h-21.93336zm61.64307 96a32 32 0 1 1 32-32 32.03667 32.03667 0 0 1 -32 32zm0-80a47.956 47.956 0 0 0 -47.32056 56h-13.366l-27.31344-27.31348v-15.74218l9.88867-4.94434h38.11133a7.99943 7.99943 0 0 0 6.65625-3.5625l16-24a7.99977 7.99977 0 0 0 -6.65625-12.4375h-28.50049l4.53565-7.9375a16.037 16.037 0 0 1 13.89257-8.0625h154.07227v104h-72.67944a47.956 47.956 0 0 0 -47.32056-56zm288 80a32 32 0 1 1 32-32 32.03667 32.03667 0 0 1 -32 32zm47.32056-24a48 48 0 1 0 -94.64112 0h-104.67944v-104h111.207l96.36035 19.272-11.1455 5.57276a8.00022 8.00022 0 0 0 -4.42185 7.15524v16a8.00039 8.00039 0 0 0 8 8h24v48z"/><circle cx="120" cy="328" r="8"/><circle cx="408" cy="328" r="8"/><path d="m280 248h24v16h-24z"/><path d="m160 248h24v16h-24z"/></svg>