<svg id="Layer_5" enable-background="new 0 0 64 64" height="512" viewBox="0 0 64 64" width="512" xmlns="http://www.w3.org/2000/svg"><g><g><g><path d="m26 21c-6.168 0-11-3.075-11-7s4.832-7 11-7 11 3.075 11 7-4.832 7-11 7z" fill="#f0bc5e"/></g></g><g><path d="m58 25h-7v-11c0-7.29-10.981-13-25-13s-25 5.71-25 13v24c0 7.29 10.981 13 25 13 1.688 0 3.358-.108 5-.279v7.279c0 2.757 2.243 5 5 5h9v-8h13c2.757 0 5-2.243 5-5v-20c0-2.757-2.243-5-5-5zm-9 0h-9.508c4.212-1.381 7.538-3.399 9.508-5.817zm-23-22c12.468 0 23 5.038 23 11s-10.532 11-23 11-23-5.038-23-11 10.532-11 23-11zm5 35v10.713c-1.313.142-2.649.227-4 .255v-1.968h-2v1.987c-12.025-.26-22-5.185-22-10.987v-18.817c3.659 4.491 11.988 7.609 22 7.805v2.012h2v-2h31c1.654 0 3 1.346 3 3s-1.346 3-3 3h-22c-2.757 0-5 2.243-5 5zm12 23h-7c-1.654 0-3-1.346-3-3v-16.002c.836.628 1.875 1.002 3 1.002h7zm15-8h-13v-12h-9c-1.654 0-3-1.346-3-3s1.346-3 3-3h22c1.13 0 2.162-.391 3-1.026v16.026c0 1.654-1.346 3-3 3z"/><path d="m7 38v-4h-2v4c0 2.049 2.027 4.208 5.563 5.924l.873-1.8c-3.064-1.486-4.436-3.143-4.436-4.124z"/><path d="m25 31h2v2h-2z"/><path d="m25 35h2v2h-2z"/><path d="m25 39h2v2h-2z"/><path d="m25 43h2v2h-2z"/><path d="m5 26h2v2h-2z"/><path d="m5 30h2v2h-2z"/></g></g></svg>